<svg xmlns="http://www.w3.org/2000/svg" viewBox="0 0 179.87 174.52"><defs><style>.cls-1{fill:#76ffba;}.cls-2{fill:#3fe0c5;}.cls-3{fill:#9cf6ff;}.cls-4{fill:#1c917a;}</style></defs><title>teemup lit</title><g id="Layer_2" data-name="Layer 2"><polygon class="cls-1" points="174.88 128.36 121.33 128.36 91.46 83.33 118.24 42.98 174.88 128.36"/><polygon class="cls-1" points="91.46 83.33 61.6 128.36 8.05 128.36 64.69 42.98 91.46 83.33"/><polygon class="cls-2" points="121.33 128.36 61.6 128.36 91.46 83.33 121.33 128.36"/><polygon class="cls-3" points="91.46 0 69.62 32.92 113.3 32.92 91.46 0"/><path class="cls-4" d="M20.75,149.74v.39a.54.54,0,0,1-.57.61H11.57v22.78a.54.54,0,0,1-.57.61h-.68a.56.56,0,0,1-.61-.61V150.74H1.14a.56.56,0,0,1-.61-.61v-.39a.55.55,0,0,1,.61-.61h19A.54.54,0,0,1,20.75,149.74Z" transform="translate(-0.54)"/><path class="cls-4" d="M34.17,150.74v10.35h11a.55.55,0,0,1,.61.61v.39a.55.55,0,0,1-.61.61h-11v9.82H46.88a.55.55,0,0,1,.61.61v.39a.55.55,0,0,1-.61.61h-14a.54.54,0,0,1-.57-.61V149.74a.54.54,0,0,1,.57-.61h14a.55.55,0,0,1,.61.61v.39a.55.55,0,0,1-.61.61Z" transform="translate(-0.54)"/><path class="cls-4" d="M62.3,150.74v10.35h11a.55.55,0,0,1,.61.61v.39a.55.55,0,0,1-.61.61h-11v9.82H75a.55.55,0,0,1,.61.61v.39a.55.55,0,0,1-.61.61H61a.54.54,0,0,1-.57-.61V149.74a.54.54,0,0,1,.57-.61H75a.55.55,0,0,1,.61.61v.39a.55.55,0,0,1-.61.61Z" transform="translate(-0.54)"/><path class="cls-4" d="M87.54,173.52l2.18-23.82a.6.6,0,0,1,.64-.57h1.29a.7.7,0,0,1,.68.43l9.78,21.89,9.78-21.89a.67.67,0,0,1,.68-.43h1.29a.6.6,0,0,1,.64.57l2.18,23.82a.51.51,0,0,1-.57.61h-.71a.6.6,0,0,1-.64-.57l-2-21.82-9.68,21.64a.67.67,0,0,1-.68.43h-.68a.67.67,0,0,1-.68-.43L91.4,151.74l-2,21.82a.58.58,0,0,1-.64.57h-.71A.5.5,0,0,1,87.54,173.52Z" transform="translate(-0.54)"/><path class="cls-4" d="M130.1,165.09V149.74a.54.54,0,0,1,.57-.61h.71a.54.54,0,0,1,.57.61v15.35c0,5.18,3.57,7.71,7.75,7.71s7.75-2.53,7.75-7.71V149.74a.54.54,0,0,1,.57-.61h.68a.56.56,0,0,1,.61.61v15.35c0,6.25-4.43,9.43-9.6,9.43S130.1,171.34,130.1,165.09Z" transform="translate(-0.54)"/><path class="cls-4" d="M180.4,156.63c0,4-2.64,7.39-7.14,7.39h-7.64v9.5a.55.55,0,0,1-.61.61h-.68a.54.54,0,0,1-.57-.61V149.74a.54.54,0,0,1,.57-.61h8.93C177.79,149.13,180.4,152.63,180.4,156.63Zm-1.93,0c0-3.25-2-5.89-5.46-5.89h-7.39v11.71H173C176.4,162.45,178.47,159.88,178.47,156.63Z" transform="translate(-0.54)"/></g></svg>