<svg id="Layer_1" data-name="Layer 1" xmlns="http://www.w3.org/2000/svg" viewBox="0 0 179.86 175.42"><defs><style>.cls-1{fill:none;stroke:#000;stroke-miterlimit:10;}</style></defs><title>teemup non_lit</title><polygon class="cls-1" points="118.24 43.87 61.6 129.26 174.88 129.26 118.24 43.87"/><polygon class="cls-1" points="64.69 43.87 8.05 129.26 121.33 129.26 64.69 43.87"/><polygon class="cls-1" points="91.46 0.9 69.62 33.83 113.3 33.83 91.46 0.9"/><path d="M20.75,150.64V151a.54.54,0,0,1-.57.61H11.57v22.78A.54.54,0,0,1,11,175h-.68a.56.56,0,0,1-.61-.61V151.64H1.14A.56.56,0,0,1,.54,151v-.39a.55.55,0,0,1,.61-.61h19A.54.54,0,0,1,20.75,150.64Z" transform="translate(-0.54)"/><path d="M34.17,151.64V162h11a.55.55,0,0,1,.61.61V163a.55.55,0,0,1-.61.61h-11v9.82H46.88a.55.55,0,0,1,.61.61v.39a.55.55,0,0,1-.61.61h-14a.54.54,0,0,1-.57-.61V150.64a.54.54,0,0,1,.57-.61h14a.55.55,0,0,1,.61.61V151a.55.55,0,0,1-.61.61Z" transform="translate(-0.54)"/><path d="M62.3,151.64V162h11a.55.55,0,0,1,.61.61V163a.55.55,0,0,1-.61.61h-11v9.82H75a.55.55,0,0,1,.61.61v.39A.55.55,0,0,1,75,175H61a.54.54,0,0,1-.57-.61V150.64A.54.54,0,0,1,61,150H75a.55.55,0,0,1,.61.61V151a.55.55,0,0,1-.61.61Z" transform="translate(-0.54)"/><path d="M87.54,174.42l2.18-23.82a.6.6,0,0,1,.64-.57h1.29a.7.7,0,0,1,.68.43l9.78,21.89,9.78-21.89a.67.67,0,0,1,.68-.43h1.29a.6.6,0,0,1,.64.57l2.18,23.82a.51.51,0,0,1-.57.61h-.71a.6.6,0,0,1-.64-.57l-2-21.82-9.68,21.64a.67.67,0,0,1-.68.43h-.68a.67.67,0,0,1-.68-.43l-9.68-21.64-2,21.82a.58.58,0,0,1-.64.57h-.71A.5.5,0,0,1,87.54,174.42Z" transform="translate(-0.54)"/><path d="M130.09,166V150.64a.54.54,0,0,1,.57-.61h.71a.54.54,0,0,1,.57.61V166c0,5.18,3.57,7.71,7.75,7.71s7.75-2.54,7.75-7.71V150.64A.54.54,0,0,1,148,150h.68a.56.56,0,0,1,.61.61V166c0,6.25-4.43,9.43-9.6,9.43S130.09,172.24,130.09,166Z" transform="translate(-0.54)"/><path d="M180.4,157.53c0,4-2.64,7.39-7.14,7.39h-7.64v9.5a.55.55,0,0,1-.61.61h-.68a.54.54,0,0,1-.57-.61V150.64a.54.54,0,0,1,.57-.61h8.93C177.79,150,180.4,153.54,180.4,157.53Zm-1.93,0c0-3.25-2-5.89-5.46-5.89h-7.39v11.71H173C176.4,163.35,178.47,160.78,178.47,157.53Z" transform="translate(-0.54)"/></svg>